<svg
    width="34"
    height="17"
    viewBox="0 0 34 17"
    fill="none"
    xmlns="http://www.w3.org/2000/svg"
  >
    <path
      d="M23.4774 1.50069L16.7543 0.985062C16.5475 0.939636 16.3363 0.915237 16.1242 0.912268H15.9981L11.3921 0.560425L15.9981 0.912268C15.2434 0.957821 14.5362 1.28257 14.0244 1.81858C13.5126 2.3546 13.2359 3.06037 13.2522 3.78827C13.2685 4.51617 13.5765 5.20981 14.1117 5.72413C14.647 6.23844 15.3681 6.53359 16.1242 6.54782C16.1935 6.54782 16.2502 6.54782 16.3195 6.54782V6.58422L9.91772 6.10499L22.6268 7.06346C27.0374 7.40923 27.6171 8.51329 27.6171 9.55062C27.6171 10.412 27.2139 11.5586 23.7294 11.5586H5.28651C3.88655 11.5618 2.54479 12.0982 1.55427 13.0507C0.563762 14.0031 0.00498998 15.2943 0 16.6421L0 17H23.3703C32.1349 17 34.0252 12.8385 34.0252 9.32617C34.0252 3.04153 27.9952 1.85254 23.4774 1.50069Z"
      fill="#004263"
    />
  </svg>