<svg width="30" height="30" viewBox="0 0 30 30" fill="none" xmlns="http://www.w3.org/2000/svg">
<path d="M26.25 28.4375H3.75C3.2375 28.4375 2.8125 28.0125 2.8125 27.5C2.8125 26.9875 3.2375 26.5625 3.75 26.5625H26.25C26.7625 26.5625 27.1875 26.9875 27.1875 27.5C27.1875 28.0125 26.7625 28.4375 26.25 28.4375Z" fill="#004263"/>
<path d="M6.99997 24.6876H5C3.8 24.6876 2.8125 23.7001 2.8125 22.5001V11.7251C2.8125 10.5251 3.8 9.5376 5 9.5376H6.99997C8.19997 9.5376 9.18747 10.5251 9.18747 11.7251V22.5001C9.18747 23.7001 8.19997 24.6876 6.99997 24.6876ZM5 11.4001C4.825 11.4001 4.6875 11.5376 4.6875 11.7126V22.5001C4.6875 22.6751 4.825 22.8126 5 22.8126H6.99997C7.17497 22.8126 7.31247 22.6751 7.31247 22.5001V11.7251C7.31247 11.5501 7.17497 11.4126 6.99997 11.4126H5V11.4001Z" fill="#004263"/>
<path d="M16 24.6873H14C12.8 24.6873 11.8125 23.6998 11.8125 22.4998V7.7373C11.8125 6.5373 12.8 5.5498 14 5.5498H16C17.2 5.5498 18.1875 6.5373 18.1875 7.7373V22.4998C18.1875 23.6998 17.2 24.6873 16 24.6873ZM14 7.4248C13.825 7.4248 13.6875 7.5623 13.6875 7.7373V22.4998C13.6875 22.6748 13.825 22.8123 14 22.8123H16C16.175 22.8123 16.3125 22.6748 16.3125 22.4998V7.7373C16.3125 7.5623 16.175 7.4248 16 7.4248H14Z" fill="#004263"/>
<path d="M25 24.6875H23C21.8 24.6875 20.8125 23.7 20.8125 22.5V3.75C20.8125 2.55 21.8 1.5625 23 1.5625H25C26.2 1.5625 27.1875 2.55 27.1875 3.75V22.5C27.1875 23.7 26.2 24.6875 25 24.6875ZM23 3.4375C22.825 3.4375 22.6875 3.575 22.6875 3.75V22.5C22.6875 22.675 22.825 22.8125 23 22.8125H25C25.175 22.8125 25.3125 22.675 25.3125 22.5V3.75C25.3125 3.575 25.175 3.4375 25 3.4375H23Z" fill="#004263"/>
</svg>
