<svg
    width="33"
    height="16"
    viewBox="0 0 33 16"
    fill="none"
    xmlns="http://www.w3.org/2000/svg"
  >
    <path
      d="M16.3132 15.5418C16.2439 15.5418 16.1872 15.5418 16.1179 15.5418C15.3618 15.5275 14.6407 15.2324 14.1054 14.7181C13.5702 14.2038 13.2622 13.5101 13.2459 12.7822C13.2296 12.0543 13.5063 11.3485 14.0181 10.8125C14.5299 10.2765 15.2371 9.95176 15.9918 9.90621L11.3858 9.55436C10.5226 9.48764 9.8106 9.40877 9.22461 9.31171C8.82135 9.26318 8.4937 9.19645 8.19125 9.09939C6.59081 8.68082 6.41438 8.09239 6.41438 7.43724C6.41438 6.67896 6.69162 5.82968 8.53151 5.5385C9.04514 5.47206 9.5635 5.44569 10.0815 5.45964H27.0185C27.7138 5.45964 28.4023 5.32759 29.0445 5.07106C29.6867 4.81452 30.2701 4.43854 30.7611 3.96464C31.2522 3.49074 31.6413 2.92824 31.9063 2.30934C32.1712 1.69044 32.3067 1.0273 32.305 0.357909V0H10.5856C10.1698 0 9.7665 0 9.36953 0.0303313C8.62548 0.0712696 7.88476 0.156359 7.1516 0.285114C6.49199 0.403704 5.84309 0.572056 5.2109 0.788614C4.63908 0.985876 4.08835 1.23575 3.56635 1.53476C2.46996 2.1456 1.56842 3.03402 0.959665 4.1035C0.350911 5.17299 0.0582286 6.38264 0.113417 7.60103C0.113417 12.1507 3.32061 14.6015 9.90512 15.0989L16.3069 15.5782L16.3132 15.5418Z"
      fill="#E7450F"
    />
  </svg>